<?xml version="1.0" standalone="no"?>
<!DOCTYPE svg PUBLIC "-//W3C//DTD SVG 20010904//EN"
 "http://www.w3.org/TR/2001/REC-SVG-20010904/DTD/svg10.dtd">
<svg version="1.0" xmlns="http://www.w3.org/2000/svg"
 width="1307.000000pt" height="1307.000000pt" viewBox="0 0 1307.000000 1307.000000"
 preserveAspectRatio="xMidYMid meet">

<g transform="translate(0.000000,1307.000000) scale(0.100000,-0.100000)"
fill="#000000" stroke="none">
<path d="M401 12605 c-18 -8 -45 -15 -59 -15 -54 0 -232 -133 -232 -173 0 -5
-9 -22 -21 -38 -31 -44 -53 -177 -39 -242 12 -61 51 -149 86 -194 30 -39 140
-112 209 -137 28 -11 84 -34 125 -53 41 -19 90 -38 110 -43 19 -5 107 -38 195
-75 88 -36 205 -82 260 -102 55 -19 109 -42 120 -49 11 -8 27 -14 37 -14 19 0
70 -20 130 -51 20 -10 43 -19 51 -19 8 0 44 -13 80 -30 37 -16 72 -30 79 -30
7 0 46 -15 88 -34 106 -47 174 -74 260 -105 118 -42 183 -81 194 -116 5 -16
24 -68 42 -115 17 -47 46 -132 64 -190 17 -58 40 -123 50 -145 39 -86 50 -116
50 -135 0 -11 9 -39 19 -62 11 -24 27 -70 36 -103 10 -33 23 -71 30 -85 7 -14
47 -126 89 -250 41 -124 102 -304 135 -400 33 -96 61 -183 61 -193 0 -10 11
-40 25 -67 21 -42 53 -132 146 -410 6 -19 16 -44 21 -54 15 -29 47 -129 48
-146 0 -8 9 -32 20 -53 11 -20 20 -45 20 -54 0 -10 7 -31 15 -47 8 -15 15 -37
15 -47 0 -10 15 -56 34 -101 18 -46 41 -108 51 -138 9 -30 32 -93 50 -140 18
-47 36 -101 39 -120 3 -19 19 -64 36 -98 16 -35 30 -75 30 -88 0 -13 9 -41 20
-61 11 -21 20 -46 20 -56 0 -10 13 -49 29 -85 16 -37 33 -80 37 -97 4 -16 10
-34 14 -40 3 -5 26 -71 49 -145 24 -74 54 -162 66 -195 13 -33 35 -100 50
-150 15 -49 33 -103 40 -120 8 -16 18 -46 24 -65 5 -19 33 -98 61 -175 29 -77
57 -158 62 -180 6 -22 14 -48 19 -58 6 -10 21 -55 36 -100 14 -45 30 -86 34
-91 5 -6 9 -19 9 -30 0 -12 7 -34 16 -51 9 -16 22 -52 29 -80 7 -27 27 -83 44
-124 17 -40 38 -99 47 -130 8 -31 22 -70 30 -88 8 -17 14 -35 14 -40 0 -5 9
-26 20 -48 11 -22 20 -49 20 -62 0 -12 5 -25 10 -28 6 -3 10 -18 10 -32 0 -15
8 -45 18 -67 28 -61 43 -106 53 -153 4 -23 18 -61 29 -83 26 -52 76 -197 85
-248 7 -43 1 -51 -68 -87 -55 -29 -108 -107 -146 -215 -42 -123 -136 -372
-176 -467 -19 -45 -35 -91 -35 -102 0 -11 -4 -22 -9 -25 -4 -3 -11 -25 -15
-48 -4 -23 -10 -47 -15 -53 -4 -5 -27 -68 -51 -140 -24 -71 -49 -136 -54 -144
-6 -8 -16 -32 -23 -55 -12 -43 -95 -278 -158 -451 -20 -55 -46 -125 -57 -155
-27 -74 -22 -232 9 -301 27 -61 85 -116 159 -151 54 -25 78 -29 210 -38 82 -5
165 -10 184 -10 64 -1 68 -13 21 -67 -103 -116 -181 -276 -231 -468 -27 -105
-30 -132 -30 -272 0 -144 3 -168 35 -307 38 -162 78 -254 161 -374 24 -35 44
-67 44 -73 0 -15 200 -210 271 -263 133 -101 373 -195 559 -218 111 -14 358
-4 430 17 30 9 83 23 118 31 73 18 255 109 330 166 75 56 221 206 289 296 137
181 217 421 229 682 6 122 -10 235 -56 399 -25 87 -115 270 -165 333 -19 23
-35 48 -35 55 0 7 -9 17 -21 24 -62 33 -16 34 1336 37 734 1 1335 -1 1335 -6
0 -5 -15 -26 -33 -48 -90 -105 -173 -269 -227 -444 -31 -97 -33 -118 -38 -280
-4 -154 -2 -187 17 -275 12 -54 26 -104 30 -110 5 -5 11 -26 15 -47 11 -60
113 -257 178 -343 82 -107 139 -166 226 -231 39 -30 72 -59 72 -65 0 -5 7 -9
15 -9 8 0 56 -22 107 -49 98 -53 270 -112 376 -131 35 -6 118 -11 185 -11 172
0 257 13 402 63 17 5 41 12 55 15 14 3 37 14 52 24 14 11 33 19 41 19 9 0 19
5 22 10 4 6 34 24 68 41 134 68 336 265 415 404 95 169 161 360 188 548 15
105 15 122 0 223 -28 191 -99 403 -169 504 -21 30 -45 66 -54 80 -9 14 -27 41
-40 61 -12 19 -23 40 -23 46 0 8 60 12 188 15 147 3 193 7 217 19 17 9 47 19
67 23 44 8 144 81 175 128 34 51 56 152 49 223 -9 95 -48 159 -139 233 l-78
62 -3227 0 c-1775 0 -3291 3 -3369 7 -99 4 -143 10 -143 18 0 14 68 201 111
305 18 41 36 93 41 115 6 22 19 58 29 81 11 23 19 48 19 57 0 8 13 44 30 79
16 34 30 72 30 83 0 11 7 33 15 49 8 15 15 36 15 45 0 9 9 33 20 54 11 20 20
43 20 49 0 7 11 40 24 73 l25 59 233 -4 c128 -3 1558 -5 3178 -5 l2945 0 57
27 c106 49 198 162 233 286 8 26 32 97 55 157 23 61 45 126 49 145 4 19 16 60
25 90 10 30 26 82 36 115 42 136 254 784 271 827 11 26 19 55 19 66 0 11 7 33
15 48 8 16 15 37 15 46 0 10 38 134 85 275 47 142 85 265 85 275 0 10 4 26 9
36 21 42 74 196 107 314 13 48 46 152 73 230 65 192 108 326 116 365 4 18 11
35 16 38 5 4 9 17 9 31 0 14 8 46 18 72 10 26 49 142 86 257 37 116 75 233 85
260 34 97 51 153 51 171 1 11 9 37 20 59 11 22 19 52 20 67 0 15 4 29 8 32 5
3 21 45 36 93 15 48 34 101 42 116 8 16 14 38 14 48 0 11 23 88 50 170 28 82
50 160 50 172 0 12 9 36 20 52 11 17 20 41 20 55 1 14 7 36 15 50 8 14 14 35
15 47 0 13 9 37 20 55 11 18 20 43 20 56 0 12 4 30 10 40 5 9 19 55 30 101 12
46 37 125 56 174 18 49 34 98 34 109 0 11 7 45 16 76 21 70 15 155 -17 237
-28 76 -120 174 -197 212 l-54 26 -581 10 c-376 6 -1835 6 -4122 0 l-3541 -10
-57 -26 c-96 -44 -217 -174 -217 -234 0 -10 -7 -31 -15 -47 -32 -60 -9 -199
48 -295 36 -61 98 -118 172 -158 l50 -28 425 -6 c234 -4 1936 -7 3783 -8
l3357 -1 0 -29 c0 -17 -4 -32 -9 -35 -5 -3 -12 -23 -16 -43 -4 -21 -11 -43
-16 -49 -10 -12 -34 -90 -49 -162 -5 -24 -16 -53 -25 -65 -8 -12 -15 -32 -15
-45 0 -12 -9 -40 -20 -62 -11 -22 -20 -46 -20 -54 0 -21 -66 -236 -97 -316
l-27 -68 -210 -6 c-116 -3 -1480 -8 -3031 -11 -1574 -2 -2891 -9 -2981 -14
-98 -6 -174 -15 -195 -24 -49 -21 -183 -163 -200 -212 -9 -26 -14 -83 -14
-160 0 -98 4 -127 19 -158 27 -54 108 -140 180 -191 l61 -43 3005 -7 c1653 -3
3023 -9 3045 -14 38 -7 40 -9 37 -42 -2 -19 -17 -74 -33 -121 -16 -48 -29 -95
-29 -105 0 -11 -6 -29 -14 -40 -8 -11 -18 -38 -21 -60 -4 -21 -11 -43 -15 -49
-4 -5 -11 -26 -15 -45 -4 -19 -12 -41 -18 -48 -5 -7 -15 -36 -22 -65 -15 -63
-85 -290 -114 -369 -12 -32 -21 -69 -21 -83 0 -18 -8 -29 -27 -37 -21 -8 -721
-13 -2613 -18 -1746 -5 -2602 -11 -2638 -18 -51 -11 -192 -93 -192 -112 0 -5
-9 -18 -20 -28 -30 -28 -70 -136 -77 -205 -6 -71 13 -160 51 -235 29 -57 135
-159 174 -168 15 -3 38 -10 52 -17 35 -16 1158 -25 3269 -26 l1724 -1 -6 -48
c-3 -27 -12 -64 -20 -83 -8 -19 -22 -61 -32 -94 -9 -33 -25 -79 -36 -103 -10
-23 -19 -51 -19 -61 0 -11 -6 -32 -14 -48 -8 -15 -22 -62 -31 -103 -10 -41
-32 -113 -50 -160 -18 -47 -36 -104 -39 -127 -4 -23 -17 -49 -28 -60 -19 -17
-114 -18 -2750 -18 l-2730 0 -19 24 c-10 13 -19 32 -19 43 0 10 -8 33 -17 51
-9 18 -20 48 -24 67 -9 42 -22 82 -61 180 -16 41 -34 93 -40 115 -6 22 -15 44
-19 49 -5 6 -9 19 -9 30 0 12 -16 57 -35 101 -19 44 -35 88 -35 98 0 10 -9 35
-20 57 -11 22 -20 50 -20 63 0 12 -4 27 -9 33 -6 5 -14 27 -20 49 -5 22 -25
83 -44 135 -34 92 -46 127 -72 200 -7 19 -21 60 -32 90 -18 50 -53 155 -114
340 -12 36 -25 74 -30 85 -17 41 -167 469 -183 520 -6 22 -17 49 -23 60 -6 11
-14 36 -17 55 -4 19 -11 44 -15 55 -33 80 -51 133 -51 145 0 8 -7 24 -15 34
-8 11 -15 30 -15 43 0 13 -8 38 -17 56 -10 18 -23 50 -29 72 -13 46 -100 300
-113 330 -4 11 -20 56 -34 100 -44 136 -49 149 -68 187 -10 20 -19 46 -19 58
0 11 -9 38 -19 58 -11 21 -27 64 -36 97 -10 33 -21 64 -26 70 -5 5 -9 18 -9
30 0 11 -9 37 -20 58 -11 20 -20 46 -20 58 0 12 -6 35 -14 52 -8 18 -35 93
-60 167 -25 74 -51 151 -57 170 -6 19 -18 47 -25 61 -7 14 -18 43 -23 65 -6
21 -48 149 -94 284 -111 320 -107 311 -123 343 -8 16 -14 38 -14 50 0 12 -7
31 -15 41 -8 11 -15 31 -15 45 0 14 -7 40 -16 56 -9 17 -43 107 -75 200 -84
244 -95 275 -103 282 -3 3 -6 18 -6 32 0 13 -9 43 -19 65 -10 23 -26 68 -36
101 -9 33 -23 74 -32 90 -9 17 -19 46 -24 65 -12 54 -147 427 -174 480 -37 73
-133 162 -207 192 -35 14 -121 49 -193 77 -71 29 -155 63 -186 77 -31 13 -63
24 -70 24 -8 0 -31 9 -52 20 -20 11 -44 20 -52 20 -9 0 -50 15 -93 34 -119 51
-179 76 -277 111 -49 18 -169 65 -265 104 -96 40 -193 77 -215 83 -22 6 -51
19 -64 30 -13 10 -30 18 -37 18 -8 0 -22 4 -32 9 -17 8 -52 21 -132 49 -25 8
-51 20 -58 26 -32 24 -224 84 -273 85 -15 1 -43 8 -62 16 -43 18 -34 18 -76 0z
m4699 -10373 c30 -8 62 -21 70 -27 8 -7 31 -18 50 -26 55 -21 170 -143 215
-229 l40 -75 3 -160 4 -160 -46 -90 c-50 -101 -138 -206 -195 -233 -20 -10
-45 -23 -56 -29 -62 -33 -131 -46 -239 -45 -180 2 -267 33 -375 136 -81 78
-149 182 -158 242 -3 24 -10 47 -14 50 -5 3 -9 50 -9 105 0 259 139 452 385
532 122 40 212 43 325 9z m4500 18 c118 -31 169 -56 256 -128 114 -94 203
-280 204 -423 0 -26 -11 -88 -24 -137 -40 -157 -142 -283 -287 -359 l-74 -38
-175 0 c-165 0 -178 1 -220 24 -76 40 -240 181 -240 206 0 6 -11 27 -25 45
-40 55 -65 154 -65 259 0 151 41 254 145 368 72 79 152 137 205 148 19 4 41
12 48 18 25 20 198 32 252 17z"/>
</g>
</svg>
